<svg width="400" height="533" xmlns="http://www.w3.org/2000/svg"><defs><linearGradient x1="0%" y1="50%" y2="50%" id="a"><stop stop-color="#CA7D29" offset="0%"/><stop stop-color="#F6BD16" offset="100%"/></linearGradient><linearGradient x1="0%" y1="50%" y2="50%" id="b"><stop stop-color="#1F1F1F" offset="0%"/><stop stop-color="#2C2C2C" offset="100%"/></linearGradient></defs><g fill="none" fill-rule="evenodd"><g transform="translate(100 167)" fill-rule="nonzero"><circle fill="url(#a)" cx="100" cy="100" r="100"/><circle fill="url(#b)" cx="100" cy="100" r="93.333"/><path d="M154.662 144.648l-29.505-29.753c-.344-.344-.723-.607-1.086-.893a49.166 49.166 0 0 0 7.895-26.79C131.966 60.03 110.118 38 83.15 38c-26.954 0-48.817 22.031-48.817 49.212 0 27.185 21.863 49.21 48.817 49.21 9.81 0 18.931-2.941 26.592-7.967.28.374.535.746.873 1.088l29.509 29.756a10.222 10.222 0 0 0 14.534.005c4.009-4.051 4.009-10.609.004-14.656M83.15 120.883c-18.413 0-33.4-15.107-33.4-33.671 0-18.561 14.988-33.672 33.4-33.672 18.411 0 33.4 15.11 33.4 33.672 0 18.564-14.989 33.67-33.4 33.67" fill="url(#a)"/></g><path d="M109.266 459.203h-6.157l-9.937-17.281h-.14c.197 3.052.296 5.229.296 6.531v10.75H89V436.36h6.11l9.921 17.11h.11c-.157-2.969-.235-5.068-.235-6.297V436.36h4.36v22.844zm18.906 0h-13.156V436.36h13.156v3.97h-8.313v5.015h7.735v3.969h-7.735v5.89h8.313v4zm27.016 0h-5.516l-3.094-12c-.114-.427-.31-1.31-.586-2.648-.276-1.339-.435-2.237-.476-2.696-.063.563-.22 1.467-.47 2.711a60.485 60.485 0 0 1-.577 2.664l-3.078 11.97h-5.5l-5.828-22.845h4.765l2.922 12.47c.51 2.301.88 4.296 1.11 5.983.062-.593.205-1.513.43-2.757.223-1.245.434-2.211.632-2.899l3.328-12.797h4.578l3.328 12.797c.146.573.328 1.448.547 2.625a63.44 63.44 0 0 1 .5 3.031 53.89 53.89 0 0 1 .5-3.039c.23-1.213.438-2.195.625-2.945l2.906-12.469H161l-5.813 22.844zM177.03 446.5h1.563c1.531 0 2.661-.255 3.39-.766.73-.51 1.094-1.312 1.094-2.406 0-1.083-.372-1.854-1.117-2.312-.745-.459-1.898-.688-3.461-.688h-1.469v6.172zm0 3.938v8.765h-4.844V436.36h6.657c3.104 0 5.4.565 6.89 1.696 1.49 1.13 2.235 2.846 2.235 5.148 0 1.344-.37 2.54-1.11 3.586-.74 1.047-1.786 1.867-3.14 2.461 3.437 5.135 5.677 8.453 6.719 9.953h-5.375l-5.454-8.765h-2.578zm29.438 8.765h-13.156V436.36h13.156v3.97h-8.313v5.015h7.735v3.969h-7.735v5.89h8.313v4zm25.5-11.453c0 2.688-.477 4.94-1.43 6.758-.953 1.818-2.351 3.148-4.195 3.992l5.5 6.14h-6.203l-4.188-5.124h-.36c-3.5 0-6.187-1.016-8.062-3.047-1.875-2.032-2.812-4.948-2.812-8.75 0-3.802.94-6.706 2.82-8.711s4.576-3.008 8.086-3.008c3.51 0 6.195 1.01 8.055 3.031 1.86 2.021 2.789 4.927 2.789 8.719zm-16.672 0c0 2.552.484 4.474 1.453 5.766.969 1.291 2.417 1.937 4.344 1.937 3.864 0 5.797-2.568 5.797-7.703 0-5.146-1.922-7.719-5.766-7.719-1.927 0-3.38.649-4.36 1.946-.979 1.296-1.468 3.22-1.468 5.773zm40-11.39v14.78c0 1.688-.378 3.167-1.133 4.438s-1.846 2.245-3.273 2.922-3.115 1.016-5.063 1.016c-2.937 0-5.219-.753-6.844-2.258s-2.437-3.565-2.437-6.18V436.36h4.828v13.985c0 1.76.354 3.052 1.063 3.875.708.823 1.88 1.234 3.515 1.234 1.583 0 2.732-.414 3.445-1.242.714-.828 1.07-2.128 1.07-3.899V436.36h4.829zm18.75 22.843H260.89V436.36h13.156v3.97h-8.313v5.015h7.735v3.969h-7.735v5.89h8.313v4zm18.25-6.344c0 2.063-.742 3.688-2.227 4.875-1.484 1.188-3.55 1.782-6.195 1.782-2.438 0-4.594-.459-6.469-1.375v-4.5c1.542.687 2.847 1.171 3.914 1.453 1.068.281 2.045.422 2.93.422 1.063 0 1.878-.203 2.445-.61.568-.406.852-1.01.852-1.812a2 2 0 0 0-.375-1.196c-.25-.349-.617-.684-1.102-1.007-.484-.323-1.471-.839-2.96-1.547-1.396-.657-2.443-1.287-3.141-1.89a7.097 7.097 0 0 1-1.672-2.11c-.417-.802-.625-1.74-.625-2.813 0-2.02.685-3.61 2.055-4.765 1.37-1.157 3.263-1.735 5.68-1.735 1.187 0 2.32.14 3.398.422a23.36 23.36 0 0 1 3.382 1.188l-1.562 3.765c-1.219-.5-2.227-.849-3.023-1.047a9.732 9.732 0 0 0-2.352-.296c-.917 0-1.62.213-2.11.64-.489.427-.734.984-.734 1.672 0 .427.1.8.297 1.117.198.318.513.625.945.922.433.297 1.456.83 3.07 1.602 2.136 1.02 3.6 2.044 4.391 3.07.792 1.026 1.188 2.284 1.188 3.773zm12.953 6.344h-4.844v-18.812h-6.203v-4.032h17.25v4.032h-6.203v18.812z" fill-opacity=".45" fill="#FFF"/></g></svg>