<svg width="200" height="200" xmlns="http://www.w3.org/2000/svg"><path d="M100 0C44.771 0 0 44.771 0 100s44.771 100 100 100 100-44.771 100-100S155.229 0 100 0zm10 155H90v-19h20v19zm26.08-66.067c-2.629 4.16-8.256 9.828-16.882 17.005a32.286 32.286 0 0 0-8.308 8.915A30.041 30.041 0 0 0 109.353 127H90.22v-5.037c-.2-5.29.853-10.552 3.074-15.357a46.793 46.793 0 0 1 12.25-13.573 92.272 92.272 0 0 0 11.136-9.851 13.178 13.178 0 0 0 2.784-8.135 13.689 13.689 0 0 0-4.989-10.543 19.19 19.19 0 0 0-13.363-4.457 20.037 20.037 0 0 0-13.364 4.591 24.522 24.522 0 0 0-7.35 14.041H61a37.745 37.745 0 0 1 11.47-25.34C79.493 47.113 88.767 44 100.289 44c12.131 0 21.782 3.172 28.954 9.517A28.826 28.826 0 0 1 140 75.67a24.4 24.4 0 0 1-3.92 13.262v.001z" style="mix-blend-mode:overlay" fill="#FFF" fill-opacity=".25"/></svg>