<?xml version="1.0" standalone="no"?>
<!DOCTYPE svg PUBLIC "-//W3C//DTD SVG 20010904//EN"
 "http://www.w3.org/TR/2001/REC-SVG-20010904/DTD/svg10.dtd">
<svg version="1.0" xmlns="http://www.w3.org/2000/svg"
 width="1024.000000pt" height="1024.000000pt" viewBox="0 0 1024.000000 1024.000000"
 preserveAspectRatio="xMidYMid meet">
<metadata>
Created by potrace 1.11, written by Peter Selinger 2001-2013
</metadata>
<g transform="translate(0.000000,1024.000000) scale(0.100000,-0.100000)"
fill="#000000" stroke="none">
<path d="M4755 9824 c-382 -38 -510 -57 -745 -109 -391 -87 -861 -273 -1235
-488 -185 -106 -464 -304 -655 -462 -127 -106 -458 -432 -587 -578 -168 -190
-401 -516 -532 -742 -239 -411 -443 -976 -524 -1450 -163 -945 -54 -1940 300
-2754 376 -865 1078 -1664 1914 -2176 504 -309 1097 -524 1684 -609 331 -49
857 -65 1175 -37 812 72 1503 312 2165 754 434 290 828 662 1187 1122 411 527
708 1177 837 1835 142 722 126 1510 -45 2180 -171 668 -452 1221 -903 1775
-210 258 -628 657 -896 855 -526 389 -1107 655 -1715 784 -366 78 -563 98
-1010 101 -206 1 -393 1 -415 -1z m355 -1508 l0 -603 -127 -7 c-401 -22 -702
-100 -1028 -266 -267 -135 -443 -265 -665 -489 -233 -235 -370 -423 -495 -676
-158 -322 -231 -596 -257 -972 l-12 -173 -605 0 -604 0 6 183 c21 626 194
1214 515 1747 162 270 323 472 581 731 250 250 449 414 686 566 435 278 962
470 1460 533 203 25 237 28 388 29 l157 1 0 -604z m525 574 c88 -11 226 -34
307 -50 708 -145 1367 -516 1898 -1067 686 -712 1035 -1518 1076 -2483 l7
-160 -605 0 -605 0 -7 133 c-18 365 -98 679 -251 992 -150 306 -351 567 -617
802 -118 104 -258 213 -274 213 -5 0 -156 -854 -335 -1897 l-326 -1898 27 -55
c89 -179 118 -378 85 -590 -32 -211 -120 -376 -286 -535 -186 -178 -402 -265
-659 -265 -311 0 -579 136 -772 390 -64 84 -132 224 -158 325 -42 159 -37 375
12 534 89 291 361 557 651 636 l63 17 747 1712 c411 941 750 1721 753 1732 6
24 -42 52 -226 131 -282 122 -557 184 -877 199 l-143 7 0 605 0 605 178 -6
c97 -3 249 -15 337 -27z"/>
</g>
</svg>
