<?xml version="1.0" standalone="no"?>
<!DOCTYPE svg PUBLIC "-//W3C//DTD SVG 20010904//EN"
 "http://www.w3.org/TR/2001/REC-SVG-20010904/DTD/svg10.dtd">
<svg version="1.0" xmlns="http://www.w3.org/2000/svg"
 width="16.000000pt" height="16.000000pt" viewBox="0 0 16.000000 16.000000"
 preserveAspectRatio="xMidYMid meet">
<metadata>
Created by potrace 1.11, written by Peter Selinger 2001-2013
</metadata>
<g transform="translate(0.000000,16.000000) scale(0.002667,-0.002667)"
fill="#000000" stroke="none">
<path d="M2907 5424 c-1 -2 -15 -5 -30 -8 -109 -19 -208 -126 -223 -240 -7
-48 -9 -49 -90 -62 -57 -9 -265 -70 -342 -100 -84 -33 -302 -141 -323 -160 -8
-8 -18 -14 -22 -14 -8 0 -85 -52 -175 -118 -281 -206 -546 -548 -685 -882 -66
-159 -142 -444 -147 -550 0 -17 -13 -34 -40 -52 -78 -54 -117 -147 -114 -268
2 -78 12 -225 18 -257 2 -10 7 -38 10 -63 13 -96 52 -257 91 -375 74 -227 207
-479 354 -670 242 -316 600 -595 941 -734 30 -12 64 -26 75 -31 73 -32 280
-92 380 -110 33 -5 73 -13 89 -16 17 -3 47 -21 69 -41 69 -62 117 -77 242 -77
106 0 293 12 304 18 3 2 28 7 56 11 265 35 610 161 865 315 93 56 224 146 256
175 7 5 31 25 55 44 81 64 313 306 385 401 215 286 353 577 438 925 14 55 27
120 31 145 3 25 8 56 10 70 20 101 28 392 14 519 -41 387 -180 773 -394 1101
-187 287 -478 566 -780 750 -147 90 -471 235 -545 245 -3 0 -11 4 -17 8 -7 5
-13 6 -13 2 0 -3 -8 -2 -17 4 -19 10 -223 56 -288 66 -23 3 -50 7 -60 9 -64
12 -369 28 -378 20z m235 -1128 c438 -51 807 -307 1008 -700 97 -190 142 -373
142 -581 0 -127 -7 -185 -38 -311 -73 -299 -245 -557 -492 -737 -57 -41 -186
-120 -202 -123 -3 0 -26 -10 -52 -22 -48 -21 -190 -68 -230 -76 -36 -6 -89
-15 -133 -21 -47 -7 -248 -7 -285 -1 -14 3 -43 7 -65 11 -541 81 -985 525
-1069 1070 -17 110 -14 347 5 425 4 19 10 46 13 60 32 181 138 398 272 556
172 204 417 356 674 419 91 23 85 22 190 31 47 3 86 7 87 8 4 3 127 -3 175 -8z"/>
</g>
</svg>
