<svg xmlns="http://www.w3.org/2000/svg" viewBox="0 0 600 600"><defs><linearGradient id="a" x1="0%" y1="50%" y2="50%"><stop offset="0%" stop-color="#CA7D29"/><stop offset="100%" stop-color="#F6BD16"/></linearGradient><linearGradient id="b" x1="0%" y1="50%" y2="50%"><stop offset="0%" stop-color="#1F1F1F"/><stop offset="100%" stop-color="#2C2C2C"/></linearGradient></defs><g fill="none"><circle cx="300" cy="300" r="300" fill="url(#a)"/><circle cx="300" cy="300" r="280" fill="url(#b)"/><path fill="url(#a)" d="M463.985 433.944l-88.515-89.258c-1.03-1.033-2.169-1.822-3.256-2.68 14.952-23.134 23.683-50.69 23.683-80.37C395.897 180.093 330.353 114 249.45 114 168.589 114 103 180.093 103 261.636c0 81.554 65.589 147.632 146.449 147.632 29.43 0 56.795-8.825 79.778-23.902.837 1.122 1.604 2.237 2.618 3.262l88.526 89.268c6.044 6.076 13.916 9.104 21.8 9.104 7.887 0 15.765-3.028 21.803-9.09 12.026-12.151 12.026-31.824.01-43.966M249.45 362.649c-55.237 0-100.2-45.322-100.2-101.013 0-55.684 44.964-101.016 100.2-101.016 55.235 0 100.199 45.332 100.199 101.016 0 55.69-44.964 101.013-100.2 101.013"/></g></svg>