<svg xmlns="http://www.w3.org/2000/svg" width="512" height="512"><g fill="none"><path fill="#CC7B19" d="M0 0h512v512H0z"/><g fill="#FFF"><path d="M256 94.786l-16.056 46.183-48.876.99 38.96 29.542-14.16 46.795L256 190.375l40.131 27.925-14.159-46.795 38.96-29.542-48.876-.994z"/><path d="M361.068 171.078l-16.052 46.183-48.88 1.001 38.96 29.535-14.16 46.795 40.132-27.929 40.13 27.93-14.162-46.8L426 218.263l-48.877-1.002zm-210.136 0l-16.055 46.183L86 218.262l38.964 29.535-14.163 46.795 40.131-27.929 40.136 27.93-14.163-46.8 38.964-29.534-48.885-1.001zm170 123.514l-16.055 46.184-48.877.993 38.964 29.543-14.163 46.787 40.131-27.921 40.132 27.921-14.16-46.787 38.96-29.543-48.88-.997z"/><path d="M191.068 294.592l-16.056 46.184-48.884.997 38.964 29.542-14.163 46.788 40.139-27.925 40.13 27.921-14.162-46.787L256 341.769l-48.877-.997z"/></g></g></svg>