<svg xmlns="http://www.w3.org/2000/svg" width="512" height="512"><g fill="none"><path fill="#CC7B19" d="M0 0h512v512H0z"/><g fill="#FFF"><path d="M228.434 172.732l27.608-19.21 27.607 19.21-9.743-32.19 26.803-20.319-33.624-.683-11.043-31.77-11.043 31.77-33.625.683 26.803 20.319z"/><path d="M256.042 171.602l-11.043 31.769-33.625.683 26.804 20.319-9.744 32.19 27.608-19.213 27.607 19.213-9.743-32.19 26.803-20.319-33.624-.683z"/><path d="M256.042 255.437l-11.043 31.769-33.625.683 26.804 20.319-9.744 32.19 27.608-19.21 27.607 19.21-9.743-32.19 26.803-20.319-33.624-.683z"/><path d="M267.085 371.03l-11.043-31.762-11.043 31.765-33.625.687 26.804 20.319-9.744 32.19 27.608-19.21 27.607 19.21-9.743-32.19 26.803-20.319z"/></g></g></svg>