<svg xmlns="http://www.w3.org/2000/svg" width="512" height="512"><g fill="none" fill-rule="evenodd"><path fill="#CC7B19" d="M0 0h512v512H0z"/><path fill="#FFF" fill-rule="nonzero" d="M256.5 84C161.23 84 84 161.23 84 256.5S161.23 429 256.5 429 429 351.77 429 256.5A172.5 172.5 0 0 0 256.5 84zm16.062 268.333h-33.657v-33.158h33.657v33.158zm45.271-114.386c-4.523 7.155-14.209 16.905-29.056 29.248a55.545 55.545 0 0 0-14.299 15.333 51.635 51.635 0 0 0-2.645 20.892h-32.928v-8.663a57.692 57.692 0 0 1 5.29-26.412A80.5 80.5 0 0 1 265.278 245a158.777 158.777 0 0 0 19.167-16.943 22.655 22.655 0 0 0 4.792-13.992 23.537 23.537 0 0 0-8.587-18.132 33.043 33.043 0 0 0-23-7.666 34.5 34.5 0 0 0-23 7.896 42.167 42.167 0 0 0-12.65 24.15h-33.388a64.898 64.898 0 0 1 19.741-43.585c12.088-10.707 28.048-16.061 47.879-16.061 20.879 0 37.49 5.456 49.833 16.368a49.565 49.565 0 0 1 18.515 38.103 41.937 41.937 0 0 1-6.747 22.809z"/></g></svg>