<svg xmlns="http://www.w3.org/2000/svg" width="512" height="512"><g fill="none" fill-rule="evenodd"><path fill="#CC7B19" d="M0 0h512v512H0z"/><path fill="#FFF" fill-rule="nonzero" d="M217.055 203.788l13.735-45.38L193 129.756l47.407-.966L255.975 84l15.569 44.79 47.407.961-37.79 28.653 13.735 45.384-38.92-27.082-38.92 27.082zm38.92-7.184l15.569 44.79 47.407.965-37.79 28.648 13.735 45.385-38.92-27.087-38.92 27.091 13.734-45.384L193 242.364l47.407-.97 15.568-44.79zm15.569 157.393l47.407.97-37.79 28.653L294.895 429l-38.92-27.082L217.055 429l13.734-45.376L193 354.972l47.407-.97 15.568-44.79 15.569 44.785z"/></g></svg>