<?xml version="1.0" encoding="utf-8"?>
<!DOCTYPE svg PUBLIC "-//W3C//DTD SVG 1.1//EN" "http://www.w3.org/Graphics/SVG/1.1/DTD/svg11.dtd">
<svg version="1.1" id="Layer_1" xmlns="http://www.w3.org/2000/svg" xmlns:xlink="http://www.w3.org/1999/xlink" width="200px" height="150px" viewBox="0 0 200 150">
<g>
	<path id="path1" fill="#010101" d="M159.599,137.909c0.975,3.397,4.717,5.548,8.161,4.988c3.489-0.443,6.558-3.466,6.685-7.043
		c0.217-3.19-1.805-6.34-5.113-7.118c-3.417-1.079-7.469,0.508-9.138,3.701c-0.91,1.636-1.166,3.624-0.612,5.414"/>
	<path id="path2" fill="#010101" d="M130.646,125.253c1.368,4.656,6.393,7.288,10.806,6.718c4.763-0.451,9.26-4.276,9.71-9.394
		c0.369-3.779-1.902-7.583-5.244-9.144c-5.404-2.732-12.557-0.222-14.908,5.448c-0.841,1.945-1.018,4.214-0.388,6.294"/>
	<path id="path3" fill="#010101" d="M184.112,144.325c0.704,2.461,3.412,4.016,5.905,3.611c2.526-0.318,4.746-2.509,4.841-5.093
		c0.153-2.315-1.483-4.54-3.703-5.155c-2.474-0.781-5.405,0.37-6.612,2.681c-0.657,1.181-0.845,2.619-0.442,3.917"/>
	<path id="path4" fill="#010101" d="M53.149,10.686c12.101-3.695,24.478-1.625,33.84,4.571c3.187-5.687,8.381-10.144,14.943-12.148
		c10.427-3.185,21.37,0.699,28.159,8.982c15.606-3.76,31.369,4.398,35.804,18.915c3.269,10.699-0.488,21.956-8.71,29.388
		c0.395,0.934,0.762,1.882,1.064,2.873c4.73,15.485-3.992,31.889-19.473,36.617c-5.073,1.551-10.251,1.625-15.076,0.518
		c-3.58,10.605-12.407,19.55-24.386,23.211c-15.015,4.586-30.547-0.521-39.226-11.624c-2.861,1.991-6.077,3.564-9.583,4.636
		c-18.43,5.631-38.04-5.068-43.785-23.874l-0.083-0.272C1.564,75.375,9.696,57.543,25.083,50.302
		C23.349,33.157,34.85,16.276,53.149,10.686L53.149,10.686z"/>
</g>
</svg>
