<?xml version="1.0" encoding="utf-8"?>
<!DOCTYPE svg PUBLIC "-//W3C//DTD SVG 1.1//EN" "http://www.w3.org/Graphics/SVG/1.1/DTD/svg11.dtd">
<svg version="1.1" id="Layer_1" xmlns="http://www.w3.org/2000/svg" xmlns:xlink="http://www.w3.org/1999/xlink" width="200" height="200" viewBox="0 0 200 200" preserveAspectRatio="none">
<path fill="#00AEEF" d="M174.209,28.162C154.645,8.88,124.289,2.08,100.06,2.08c-0.074,0-0.06-0.079-0.06-0.079
	s0.015,0.079-0.06,0.079c-24.229,0-54.584,6.8-74.149,26.082C5.417,48.242,3,75,3,100s2.418,51.758,22.792,71.838
	c19.564,19.281,49.92,26.082,74.149,26.082c0.074,0,0.06,0.079,0.06,0.079s-0.015-0.079,0.06-0.079
	c24.229,0,54.585-6.801,74.149-26.082C194.582,151.758,197,125,197,100S194.582,48.242,174.209,28.162z"/>
</svg>
