<svg xmlns="http://www.w3.org/2000/svg" width="131" height="135"><g fill="none"><g fill="#F93208"><path d="M17.154 37.829C-10.995 65.451 3.497 98.84 11.42 109.76c35.254 41.954 92.792 25.339 111.89-5.907 4.76-8.203 22.554-53.467-23.976-78.01l-82.18 11.986z"/><path d="M36.613 36.265l4.778-8.86 28.406-5.04 11.119 9.21z"/></g><path fill="#02902E" d="M36.436 5.57L45.404.287l6.757 15.479c3.793-6.323 13.79-16.316 24.94-4.668-4.729 1.263-7.517 3.855-7.74 8.476 15.144-4.17 31.342 3.213 33.538 9.091C91.95 24.351 75.204 39.042 61.13 31c.008 15.045-12.618 16.636-19.903 17.076 2.077-4.996 5.591-9.994 1.474-14.987-7.618 8.171-13.874 10.668-33.17 4.668 4.876-1.679 14.843-11.39 24.448-11.425-6.775-2.467-12.29-2.087-17.814-1.475 2.917-3.96 12.15-15.197 28.625-8.476L36.436 5.57z"/></g></svg>