<?xml version="1.0" standalone="no"?>
<!DOCTYPE svg PUBLIC "-//W3C//DTD SVG 20010904//EN"
 "http://www.w3.org/TR/2001/REC-SVG-20010904/DTD/svg10.dtd">
<svg version="1.0" xmlns="http://www.w3.org/2000/svg"
 width="600.000000pt" height="600.000000pt" viewBox="0 0 600.000000 600.000000"
 preserveAspectRatio="xMidYMid meet">
<metadata>
Created by potrace 1.11, written by Peter Selinger 2001-2013
</metadata>
<g transform="translate(0.000000,600.000000) scale(0.100000,-0.100000)"
fill="#000000" stroke="none">
<path d="M2897 5418 c-181 -26 -290 -212 -229 -391 13 -40 16 -60 8 -62 -6 -2
-56 -13 -111 -25 -661 -147 -1222 -659 -1435 -1311 -81 -246 -112 -487 -98
-747 9 -164 26 -220 84 -278 79 -80 188 -93 290 -35 102 59 131 137 114 305
-35 327 56 683 251 977 86 129 273 315 404 402 179 118 340 184 566 232 174
37 217 63 260 159 18 41 21 61 16 118 -3 37 -2 68 3 68 52 0 239 -26 329 -46
365 -82 678 -258 941 -530 252 -261 411 -563 487 -923 24 -111 27 -149 27
-321 1 -166 -2 -212 -22 -310 -50 -245 -146 -476 -283 -680 -85 -126 -215
-279 -275 -325 -22 -16 -66 -52 -99 -80 -223 -188 -547 -338 -840 -389 -79
-14 -87 -14 -127 4 -30 12 -80 20 -163 25 -463 26 -818 171 -1155 474 -50 45
-56 47 -67 31 -23 -33 -32 -101 -21 -155 9 -44 21 -60 92 -130 104 -103 241
-199 386 -274 117 -59 326 -134 412 -146 l46 -7 -19 -41 c-10 -23 -19 -57 -19
-74 0 -28 -4 -33 -22 -33 -43 1 -199 39 -316 79 -692 231 -1222 810 -1396
1522 -44 184 -58 321 -54 551 1 114 0 208 -4 208 -21 0 -107 -104 -122 -146
-46 -134 0 -527 96 -822 114 -353 299 -654 567 -923 330 -329 727 -543 1176
-634 116 -24 133 -30 168 -62 74 -67 114 -78 267 -76 743 9 1466 383 1914 990
380 514 547 1140 461 1730 -94 644 -435 1220 -955 1612 -405 305 -896 479
-1396 493 -50 2 -112 0 -137 -4z"/>
</g>
</svg>
